<svg xmlns="http://www.w3.org/2000/svg" width="1080" height="1920" viewBox="0 0 1080 1920">
  <rect width="1080" height="1920" fill="#F7F8F5"/>
  <rect x="0" y="0" width="1080" height="80" fill="#1B5E20"/>
  <text x="60" y="55" font-family="Arial" font-size="32" fill="white" font-weight="700">14:25</text>

  <rect x="0" y="80" width="1080" height="120" fill="#2E7D32"/>
  <text x="60" y="160" font-family="Arial" font-size="46" font-weight="700" fill="white">✅ Task List</text>
  <text x="1020" y="160" text-anchor="end" font-family="Arial" font-size="28" fill="#A5D6A7">Tổng 5</text>

  <!-- Running -->
  <text x="60" y="280" font-family="Arial" font-size="24" font-weight="700" fill="#5C6B6B">ĐANG CHẠY · 1</text>
  <rect x="60" y="310" width="960" height="240" rx="20" fill="white"/>
  <text x="100" y="370" font-family="Arial" font-size="36" font-weight="700" fill="#1A1A1A">Tưới Zone Z01</text>
  <rect x="780" y="335" width="200" height="48" rx="24" fill="#CFE8FF"/>
  <text x="880" y="368" text-anchor="middle" font-family="Arial" font-size="22" font-weight="700" fill="#0C4A6E">RUNNING</text>
  <text x="100" y="425" font-family="Arial" font-size="26" fill="#5C6B6B">Zone Z01 · Hạn: 10/06 15:00 · Ưu tiên: HIGH</text>
  <rect x="100" y="460" width="280" height="70" rx="12" fill="white" stroke="#2E7D32" stroke-width="3"/>
  <text x="240" y="508" text-anchor="middle" font-family="Arial" font-size="28" font-weight="700" fill="#2E7D32">✓ Mark complete</text>

  <!-- Queued -->
  <text x="60" y="620" font-family="Arial" font-size="24" font-weight="700" fill="#5C6B6B">HÀNG ĐỢI · 2</text>
  <rect x="60" y="650" width="960" height="200" rx="20" fill="white"/>
  <text x="100" y="710" font-family="Arial" font-size="36" font-weight="700" fill="#1A1A1A">Bón NPK Z02</text>
  <rect x="780" y="675" width="200" height="48" rx="24" fill="#FFF3CD"/>
  <text x="880" y="708" text-anchor="middle" font-family="Arial" font-size="22" font-weight="700" fill="#8B6914">QUEUED</text>
  <text x="100" y="765" font-family="Arial" font-size="26" fill="#5C6B6B">Zone Z02 · Hạn: 11/06 08:00 · Ưu tiên: MEDIUM</text>
  <rect x="100" y="790" width="280" height="50" rx="12" fill="white" stroke="#2E7D32" stroke-width="3"/>
  <text x="240" y="822" text-anchor="middle" font-family="Arial" font-size="22" font-weight="700" fill="#2E7D32">✓ Mark complete</text>

  <rect x="60" y="880" width="960" height="200" rx="20" fill="white"/>
  <text x="100" y="940" font-family="Arial" font-size="36" font-weight="700" fill="#1A1A1A">Kiểm tra sâu Z03</text>
  <rect x="780" y="905" width="200" height="48" rx="24" fill="#FFF3CD"/>
  <text x="880" y="938" text-anchor="middle" font-family="Arial" font-size="22" font-weight="700" fill="#8B6914">QUEUED</text>
  <text x="100" y="995" font-family="Arial" font-size="26" fill="#5C6B6B">Zone Z03 · Hạn: 11/06 14:00 · LOW</text>
  <rect x="100" y="1020" width="280" height="50" rx="12" fill="white" stroke="#2E7D32" stroke-width="3"/>
  <text x="240" y="1052" text-anchor="middle" font-family="Arial" font-size="22" font-weight="700" fill="#2E7D32">✓ Mark complete</text>

  <!-- Completed -->
  <text x="60" y="1150" font-family="Arial" font-size="24" font-weight="700" fill="#5C6B6B">HOÀN THÀNH (24H) · 2</text>
  <rect x="60" y="1180" width="960" height="160" rx="20" fill="white"/>
  <text x="100" y="1240" font-family="Arial" font-size="36" font-weight="700" fill="#1A1A1A">Cắt cỏ Z04</text>
  <rect x="780" y="1205" width="200" height="48" rx="24" fill="#D4EDDA"/>
  <text x="880" y="1238" text-anchor="middle" font-family="Arial" font-size="22" font-weight="700" fill="#155724">COMPLETED</text>
  <text x="100" y="1295" font-family="Arial" font-size="26" fill="#5C6B6B">Zone Z04 · Xong 11:30</text>

  <rect x="60" y="1370" width="960" height="160" rx="20" fill="white"/>
  <text x="100" y="1430" font-family="Arial" font-size="36" font-weight="700" fill="#1A1A1A">Phun thuốc Z01</text>
  <rect x="780" y="1395" width="200" height="48" rx="24" fill="#D4EDDA"/>
  <text x="880" y="1428" text-anchor="middle" font-family="Arial" font-size="22" font-weight="700" fill="#155724">COMPLETED</text>
  <text x="100" y="1485" font-family="Arial" font-size="26" fill="#5C6B6B">Zone Z01 · Xong 09:15</text>

  <!-- Bottom nav -->
  <rect x="0" y="1770" width="1080" height="150" fill="white"/>
  <g font-family="Arial" font-size="22">
    <text x="108" y="1830" text-anchor="middle" font-size="40">📊</text>
    <text x="108" y="1870" text-anchor="middle" fill="#5C6B6B">Sensor</text>
    <text x="324" y="1830" text-anchor="middle" font-size="40">🚨</text>
    <text x="324" y="1870" text-anchor="middle" fill="#5C6B6B">Alert</text>
    <text x="540" y="1830" text-anchor="middle" font-size="40">📝</text>
    <text x="540" y="1870" text-anchor="middle" fill="#5C6B6B">Log</text>
    <text x="756" y="1830" text-anchor="middle" font-size="40">✅</text>
    <text x="756" y="1870" text-anchor="middle" fill="#2E7D32" font-weight="700">Task</text>
    <text x="972" y="1830" text-anchor="middle" font-size="40">⚙️</text>
    <text x="972" y="1870" text-anchor="middle" fill="#5C6B6B">Cài đặt</text>
  </g>
</svg>
