<svg xmlns="http://www.w3.org/2000/svg" width="1080" height="1920" viewBox="0 0 1080 1920">
  <rect width="1080" height="1920" fill="#F7F8F5"/>
  <rect x="0" y="0" width="1080" height="80" fill="#1B5E20"/>
  <text x="60" y="55" font-family="Arial" font-size="32" fill="white" font-weight="700">14:25</text>

  <rect x="0" y="80" width="1080" height="120" fill="#2E7D32"/>
  <text x="60" y="160" font-family="Arial" font-size="46" font-weight="700" fill="white">⚡ Điều khiển thiết bị</text>

  <rect x="60" y="240" width="960" height="100" rx="12" fill="#FFF3CD"/>
  <text x="100" y="280" font-family="Arial" font-size="24" fill="#8B6914">⚠ Điều khiển trực tiếp. Mọi lệnh có audit log +</text>
  <text x="100" y="315" font-family="Arial" font-size="24" fill="#8B6914">yêu cầu xác nhận 2 bước.</text>

  <rect x="60" y="380" width="960" height="380" rx="20" fill="white"/>
  <rect x="60" y="380" width="12" height="380" fill="#2E7D32"/>
  <text x="120" y="450" font-family="Arial" font-size="38" font-weight="700" fill="#1A1A1A">Bơm tưới Z01</text>
  <rect x="780" y="410" width="200" height="60" rx="30" fill="#D4EDDA"/>
  <text x="880" y="450" text-anchor="middle" font-family="Arial" font-size="22" font-weight="700" fill="#155724">ONLINE</text>
  <text x="120" y="500" font-family="Arial" font-size="26" fill="#5C6B6B">relay_pump · Zone Z01</text>

  <g font-family="Arial" font-size="28" font-weight="700">
    <rect x="120" y="570" width="400" height="80" rx="12" fill="white" stroke="#2E7D32" stroke-width="3"/>
    <text x="320" y="622" text-anchor="middle" fill="#2E7D32">💧 Bơm ON</text>

    <rect x="560" y="570" width="400" height="80" rx="12" fill="white" stroke="#2E7D32" stroke-width="3"/>
    <text x="760" y="622" text-anchor="middle" fill="#2E7D32">⏹ Bơm OFF</text>

    <rect x="120" y="670" width="400" height="80" rx="12" fill="white" stroke="#2E7D32" stroke-width="3"/>
    <text x="320" y="722" text-anchor="middle" fill="#2E7D32">💡 Đèn ON</text>

    <rect x="560" y="670" width="400" height="80" rx="12" fill="white" stroke="#2E7D32" stroke-width="3"/>
    <text x="760" y="722" text-anchor="middle" fill="#2E7D32">⏹ Đèn OFF</text>
  </g>

  <rect x="60" y="800" width="960" height="320" rx="20" fill="white"/>
  <rect x="60" y="800" width="12" height="320" fill="#F9A825"/>
  <text x="120" y="870" font-family="Arial" font-size="38" font-weight="700" fill="#1A1A1A">Đèn LED Z02</text>
  <rect x="780" y="830" width="200" height="60" rx="30" fill="#FFF3CD"/>
  <text x="880" y="870" text-anchor="middle" font-family="Arial" font-size="22" font-weight="700" fill="#8B6914">DEGRADED</text>

  <!-- Modal overlay for confirm step 2 -->
  <rect x="0" y="1200" width="1080" height="720" fill="rgba(0,0,0,0.6)"/>
  <rect x="80" y="1300" width="920" height="520" rx="24" fill="white"/>
  <text x="540" y="1380" text-anchor="middle" font-family="Arial" font-size="40" font-weight="700" fill="#1A1A1A">Bước 2: Xác nhận</text>
  <text x="540" y="1430" text-anchor="middle" font-family="Arial" font-size="26" fill="#5C6B6B">Nhập lại PIN để gửi lệnh "pump_on"</text>
  <rect x="180" y="1480" width="720" height="100" rx="12" fill="#F7F8F5" stroke="#E1E5DD" stroke-width="2"/>
  <text x="540" y="1550" text-anchor="middle" font-family="Arial" font-size="56" letter-spacing="20" fill="#1A1A1A">● ● ● ●</text>
  <rect x="180" y="1610" width="340" height="100" rx="12" fill="white" stroke="#5C6B6B" stroke-width="3"/>
  <text x="350" y="1672" text-anchor="middle" font-family="Arial" font-size="32" font-weight="700" fill="#5C6B6B">Huỷ</text>
  <rect x="560" y="1610" width="340" height="100" rx="12" fill="#2E7D32"/>
  <text x="730" y="1672" text-anchor="middle" font-family="Arial" font-size="32" font-weight="700" fill="white">Xác nhận</text>
</svg>
